<svg width="38" height="30" viewBox="0 0 38 30" fill="none" xmlns="http://www.w3.org/2000/svg">
<path d="M34.259 29.8716L3.79234 29.9999C1.77368 30.0116 0.105076 28.3547 0.0934075 26.336L6.12548e-05 3.82735C-0.0116073 1.80869 1.64533 0.140085 3.66399 0.128416L34.1306 6.12548e-05C36.1493 -0.0116073 37.8179 1.64533 37.8295 3.66399L37.9229 26.1727C37.9346 28.203 36.2776 29.8716 34.259 29.8716Z" fill="#B2AEA9"/>
<path d="M14.6564 25.9742C14.493 25.9742 14.3413 25.8926 14.2596 25.7409C14.143 25.5308 14.2363 25.2625 14.4463 25.1458C15.0764 24.819 15.9399 24.2006 16.43 23.1504C17.0601 21.8086 16.8851 20.35 16.6167 20.2333C16.5467 20.1983 16.29 20.3383 16.1266 20.42C15.7182 20.63 15.1464 20.9217 14.4813 20.7C13.8279 20.4783 13.5129 19.9066 13.3612 19.6265C12.3577 17.8179 12.0309 13.0921 13.0694 10.7351C13.4195 9.9533 13.8863 9.48655 14.4697 9.34653C15.0648 9.20651 15.5549 9.45155 15.9516 9.64992C16.2783 9.81327 16.4417 9.88328 16.535 9.82494C16.9434 9.5799 16.9317 8.07466 16.3483 6.88446C15.8466 5.83429 14.9831 5.22753 14.3413 4.90081C14.1313 4.79579 14.0379 4.52742 14.1546 4.31738C14.2596 4.10735 14.528 4.01399 14.7381 4.13068C15.4965 4.51574 16.5233 5.23919 17.1301 6.51107C17.7369 7.77127 18.0286 9.94162 16.9784 10.5834C16.4533 10.9101 15.9399 10.6534 15.5432 10.4434C15.2398 10.2917 14.9481 10.14 14.668 10.21C14.283 10.3033 14.0146 10.7468 13.8629 11.0968C12.9528 13.1505 13.2328 17.6195 14.1196 19.2065C14.2713 19.4748 14.4463 19.7666 14.7614 19.8716C15.0531 19.9766 15.3331 19.8482 15.7299 19.6382C16.1149 19.4398 16.5467 19.2181 17.0018 19.4398C17.9819 19.9066 17.9236 22.0186 17.2235 23.5238C16.6284 24.8074 15.6015 25.5308 14.8431 25.9276C14.7964 25.9626 14.7264 25.9742 14.6564 25.9742Z" fill="#3D3D3C"/>
<path d="M13.28 11.5287L5.39205 11.5637C5.14701 11.5637 4.94864 11.3654 4.94864 11.132C4.94864 10.8869 5.14701 10.6886 5.38038 10.6886L13.2683 10.6536C13.5134 10.6536 13.7117 10.8519 13.7117 11.0853C13.7234 11.3304 13.525 11.5287 13.28 11.5287Z" fill="#3D3D3C"/>
<path d="M13.3145 19.4167L5.42653 19.4517C5.1815 19.4517 4.98312 19.2534 4.98312 19.02C4.98312 18.775 5.18149 18.5766 5.41486 18.5766L13.3028 18.5416C13.5479 18.5416 13.7462 18.74 13.7462 18.9733C13.7462 19.2067 13.5595 19.4167 13.3145 19.4167Z" fill="#3D3D3C"/>
<path d="M23.8508 25.9396C23.7808 25.9396 23.7108 25.9279 23.6524 25.8929C22.894 25.5078 21.8671 24.7844 21.2604 23.5125C20.5369 22.0189 20.4669 19.9069 21.4471 19.4285C21.9021 19.2068 22.3339 19.4285 22.7189 19.6152C23.1157 19.8136 23.3957 19.9419 23.6874 19.8369C24.0142 19.7202 24.2008 19.3702 24.3175 19.1601C25.181 17.5615 25.426 13.0925 24.5042 11.0505C24.3409 10.7004 24.0725 10.257 23.6874 10.1753C23.4541 10.117 23.3024 9.88363 23.3607 9.65026C23.419 9.41689 23.6524 9.2652 23.8858 9.32354C24.4692 9.46357 24.9476 9.91863 25.2977 10.7004C26.3595 13.0458 26.0678 17.7716 25.0877 19.5919C24.936 19.8719 24.6209 20.4553 23.9791 20.6771C23.314 20.9104 22.7423 20.6187 22.3339 20.4087C22.1705 20.327 21.9021 20.1986 21.8438 20.222C21.5754 20.3503 21.4237 21.8089 22.0655 23.1391C22.5672 24.1893 23.4307 24.7961 24.0725 25.1228C24.2825 25.2278 24.3759 25.4962 24.2592 25.7062C24.1658 25.8462 24.0142 25.9396 23.8508 25.9396Z" fill="#3D3D3C"/>
<path d="M22.0312 9.74339C21.8445 9.74339 21.6811 9.62671 21.6111 9.44002C20.666 6.62789 22.848 4.44587 23.5598 4.08414C23.7698 3.96746 24.0382 4.06081 24.1549 4.27084C24.2716 4.48088 24.1782 4.74925 23.9682 4.86593C23.6531 5.02929 21.6461 6.76791 22.4513 9.15996C22.5329 9.39334 22.4046 9.63838 22.1712 9.72006C22.1245 9.73173 22.0779 9.74339 22.0312 9.74339Z" fill="#3D3D3C"/>
<path d="M32.9882 11.4471L25.1002 11.4821C24.8552 11.4821 24.6568 11.2838 24.6568 11.0504C24.6568 10.8053 24.8552 10.607 25.0885 10.607L32.9765 10.572C33.2215 10.572 33.4199 10.7703 33.4199 11.0037C33.4316 11.2487 33.2332 11.4471 32.9882 11.4471Z" fill="#3D3D3C"/>
<path d="M33.0226 19.3348L25.1347 19.3698C24.8896 19.3698 24.6913 19.1715 24.6913 18.9381C24.6913 18.6931 24.8896 18.4947 25.123 18.4947L33.0109 18.4597C33.256 18.4597 33.4543 18.6581 33.4543 18.8914C33.466 19.1365 33.2677 19.3348 33.0226 19.3348Z" fill="#3D3D3C"/>
</svg>
