<svg width="47" height="36" viewBox="0 0 47 36" fill="none" xmlns="http://www.w3.org/2000/svg">
<path fill-rule="evenodd" clip-rule="evenodd" d="M13.2767 32.0955V33.9999V35.9042H12.4382V35.4418C12.1723 35.7847 11.7687 36 11.2202 36C10.1388 36 9.29104 35.1636 9.29104 33.9999C9.29104 32.837 10.1388 31.9997 11.2202 31.9997C11.7687 31.9997 12.1723 32.215 12.4382 32.5579V32.0955H13.2767ZM11.3245 32.7804C10.5986 32.7804 10.1545 33.3304 10.1545 33.9998C10.1545 34.6693 10.5986 35.2193 11.3245 35.2193C12.018 35.2193 12.4862 34.693 12.4862 33.9998C12.4862 33.3067 12.018 32.7804 11.3245 32.7804ZM41.6125 33.9998C41.6125 33.3304 42.0567 32.7804 42.7825 32.7804C43.477 32.7804 43.9443 33.3067 43.9443 33.9998C43.9443 34.693 43.477 35.2193 42.7825 35.2193C42.0567 35.2193 41.6125 34.6693 41.6125 33.9998ZM44.7357 30.566V33.9999V35.9042H43.8962V35.4418C43.6303 35.7847 43.2267 36 42.6782 36C41.5968 36 40.7491 35.1636 40.7491 33.9999C40.7491 32.837 41.5968 31.9997 42.6782 31.9997C43.2267 31.9997 43.6303 32.215 43.8962 32.5579V30.566H44.7357ZM23.6852 32.7412C24.2254 32.7412 24.5726 33.0759 24.6613 33.6651H22.6601C22.7497 33.1152 23.0877 32.7412 23.6852 32.7412ZM21.781 33.9999C21.781 32.8124 22.5714 31.9997 23.7018 31.9997C24.7822 31.9997 25.5247 32.8124 25.533 33.9999C25.533 34.1111 25.5247 34.2151 25.5164 34.3182H22.6527C22.7737 35.004 23.2659 35.2512 23.8061 35.2512C24.1931 35.2512 24.6049 35.1071 24.9281 34.8526L25.3391 35.4664C24.8709 35.8568 24.339 36 23.7581 36C22.6038 36 21.781 35.2111 21.781 33.9999ZM33.8267 33.9998C33.8267 33.3304 34.2709 32.7804 34.9968 32.7804C35.6903 32.7804 36.1585 33.3067 36.1585 33.9998C36.1585 34.693 35.6903 35.2193 34.9968 35.2193C34.2709 35.2193 33.8267 34.6693 33.8267 33.9998ZM36.949 32.0955V33.9999V35.9042H36.1105V35.4418C35.8436 35.7847 35.441 36 34.8924 36C33.811 36 32.9633 35.1636 32.9633 33.9999C32.9633 32.837 33.811 31.9997 34.8924 31.9997C35.441 31.9997 35.8436 32.215 36.1105 32.5579V32.0955H36.949ZM29.0911 33.9999C29.0911 35.1554 29.9056 36 31.1486 36C31.7295 36 32.1164 35.8723 32.5356 35.5458L32.133 34.8763C31.8181 35.0998 31.4875 35.2193 31.1237 35.2193C30.4541 35.2111 29.9619 34.7332 29.9619 33.9999C29.9619 33.2666 30.4541 32.7887 31.1237 32.7804C31.4875 32.7804 31.8181 32.8999 32.133 33.1234L32.5356 32.4539C32.1164 32.1274 31.7295 31.9997 31.1486 31.9997C29.9056 31.9997 29.0911 32.8443 29.0911 33.9999ZM38.8853 32.5579C39.1033 32.2232 39.4182 31.9997 39.9021 31.9997C40.072 31.9997 40.314 32.0317 40.4996 32.1037L40.241 32.8844C40.0637 32.8124 39.8864 32.7887 39.7165 32.7887C39.1679 32.7887 38.8937 33.1389 38.8937 33.7691V35.9042H38.0542V32.0955H38.8853V32.5579ZM17.424 32.3983C17.0204 32.1356 16.4645 31.9997 15.8513 31.9997C14.8743 31.9997 14.2454 32.4621 14.2454 33.2191C14.2454 33.8402 14.7136 34.2233 15.5761 34.3428L15.9723 34.3984C16.4322 34.4623 16.6492 34.5817 16.6492 34.797C16.6492 35.0916 16.3426 35.2594 15.77 35.2594C15.1892 35.2594 14.7699 35.0761 14.4873 34.8608L14.0921 35.5057C14.552 35.8404 15.1328 36 15.7617 36C16.8754 36 17.5209 35.4819 17.5209 34.7569C17.5209 34.0874 17.013 33.7372 16.1736 33.6177L15.7783 33.5612C15.4154 33.5137 15.1245 33.4426 15.1245 33.1872C15.1245 32.9081 15.3988 32.7412 15.8587 32.7412C16.3509 32.7412 16.8274 32.9245 17.061 33.0677L17.424 32.3983ZM27.2276 32.5579C27.4446 32.2232 27.7595 31.9997 28.2434 31.9997C28.4133 31.9997 28.6553 32.0317 28.8409 32.1037L28.5823 32.8844C28.405 32.8124 28.2277 32.7887 28.0578 32.7887C27.5093 32.7887 27.235 33.1389 27.235 33.7691V35.9042H26.3965V32.0955H27.2276V32.5579ZM21.0873 32.0955H19.7159V30.9399H18.8682V32.0955H18.086V32.8525H18.8682V34.59C18.8682 35.4737 19.2154 36 20.2072 36C20.5711 36 20.9903 35.8887 21.2563 35.7054L21.0143 34.9958C20.7641 35.139 20.4898 35.2111 20.2719 35.2111C19.8526 35.2111 19.7159 34.9557 19.7159 34.5735V32.8525H21.0873V32.0955ZM8.54943 33.5137V35.9042H7.70169V33.7846C7.70169 33.1389 7.42742 32.7804 6.85486 32.7804C6.29801 32.7804 5.91108 33.1316 5.91108 33.7928V35.9042H5.06333V33.7846C5.06333 33.1389 4.78168 32.7804 4.22482 32.7804C3.65135 32.7804 3.28011 33.1316 3.28011 33.7928V35.9042H2.43329L2.43329 32.0955H3.27273V32.5652C3.58763 32.1192 3.99026 31.9997 4.40213 31.9997C4.9913 31.9997 5.41056 32.2551 5.67652 32.6774C6.03205 32.1429 6.53996 31.9915 7.03217 31.9997C7.96857 32.0079 8.54943 32.6135 8.54943 33.5137Z" fill="white"/>
<path d="M29.8548 25.6237H17.146V3.06677H29.8548V25.6237Z" fill="#FF5F00"/>
<path d="M17.9523 14.3457C17.9523 9.76991 20.1215 5.69395 23.4995 3.06723C21.0293 1.14645 17.9116 1.6398e-06 14.5234 1.6398e-06C6.50215 1.6398e-06 0 6.42268 0 14.3457C0 22.2687 6.50215 28.6914 14.5234 28.6914C17.9116 28.6914 21.0293 27.5449 23.4995 25.6241C20.1215 22.9974 17.9523 18.9215 17.9523 14.3457" fill="#EB001B"/>
<path d="M47 14.3457C47 22.2687 40.4978 28.6914 32.4766 28.6914C29.0884 28.6914 25.9707 27.5449 23.4995 25.6241C26.8785 22.9974 29.0477 18.9215 29.0477 14.3457C29.0477 9.76991 26.8785 5.69395 23.4995 3.06723C25.9707 1.14645 29.0884 1.6398e-06 32.4766 1.6398e-06C40.4978 1.6398e-06 47 6.42268 47 14.3457" fill="#F79E1B"/>
</svg>
