<svg width="22" height="22" viewBox="0 0 22 22" fill="none" xmlns="http://www.w3.org/2000/svg">
<g clip-path="url(#clip0_2275_3349)">
<path d="M4.50002 9.16666C3.4871 9.16666 2.66669 9.98707 2.66669 11C2.66669 12.0129 3.4871 12.8333 4.50002 12.8333C5.51294 12.8333 6.33335 12.0129 6.33335 11C6.33335 9.98707 5.51294 9.16666 4.50002 9.16666ZM17.5 9.16666C16.4871 9.16666 15.6667 9.98707 15.6667 11C15.6667 12.0129 16.4871 12.8333 17.5 12.8333C18.5129 12.8333 19.3334 12.0129 19.3334 11C19.3334 9.98707 18.5129 9.16666 17.5 9.16666ZM11 9.16666C9.9871 9.16666 9.16669 9.98707 9.16669 11C9.16669 12.0129 9.9871 12.8333 11 12.8333C12.0129 12.8333 12.8334 12.0129 12.8334 11C12.8334 9.98707 12.0129 9.16666 11 9.16666Z" fill="#929EAE"/>
</g>
<defs>
<clipPath id="clip0_2275_3349">
<rect width="22" height="22" fill="white"/>
</clipPath>
</defs>
</svg>
